<?xml version="1.0" encoding="iso-8859-1"?>
<!-- Generator: Adobe Illustrator 17.1.0, SVG Export Plug-In . SVG Version: 6.00 Build 0)  -->
<!DOCTYPE svg PUBLIC "-//W3C//DTD SVG 1.1//EN" "http://www.w3.org/Graphics/SVG/1.1/DTD/svg11.dtd">
<svg version="1.1" id="Capa_1" xmlns="http://www.w3.org/2000/svg" xmlns:xlink="http://www.w3.org/1999/xlink" x="0px" y="0px"
	 viewBox="0 0 424.104 424.104" style="enable-background:new 0 0 424.104 424.104;" xml:space="preserve">
<g>
	<path d="M392.067,189.73c-1.584-0.333-3.081-0.646-4.415-0.993c-14.677-3.817-21.986-6.095-27.122-15.923l-19.177-48.571
		l-0.105-0.232c-6.152-11.877-22.037-21.539-35.41-21.539h-56.975c-4.093,0-10.182,2.654-10.182,9.966v117.096h-18.978v-39.798
		c0-8.547-6.953-15.5-15.5-15.5H15.5c-8.547,0-15.5,6.953-15.5,15.5v41.662c0,1.491,0.223,2.929,0.618,4.295
		C0.225,236.734,0,237.857,0,239.034v45.359c0,5.238,4.262,9.5,9.5,9.5h43.877c1.312,28.981,25.295,52.156,54.598,52.156
		c29.304,0,53.29-23.175,54.602-52.156h85.816l5.907,0c1.312,28.981,25.295,52.155,54.598,52.155
		c27.516,0,50.338-20.435,54.108-46.922h35.861c13.916,0,25.237-11.321,25.237-25.236v-43.199
		C424.104,196.45,404.825,192.406,392.067,189.73z M308.897,271.219c11.128,0,20.182,9.05,20.182,20.175
		s-9.054,20.175-20.182,20.175c-11.123,0-20.173-9.05-20.173-20.175S297.774,271.219,308.897,271.219z M261.641,186.631v-63.352
		h36.116c10.095,0,22.538,7.541,27.251,16.495l17.055,44.269l0.113,0.25c0.425,0.822,0.869,1.6,1.334,2.338H261.641z
		 M107.975,271.219c11.128,0,20.182,9.05,20.182,20.175s-9.054,20.175-20.182,20.175c-11.123,0-20.173-9.05-20.173-20.175
		S96.852,271.219,107.975,271.219z"/>
	<path d="M10.5,150.717h92.739c5.79,0,10.5-4.71,10.5-10.5V88.555c0-5.79-4.71-10.5-10.5-10.5H10.5c-5.79,0-10.5,4.71-10.5,10.5
		v51.662C0,146.007,4.71,150.717,10.5,150.717z"/>
	<path d="M151.145,150.717h58.06c5.79,0,10.5-4.71,10.5-10.5V88.555c0-5.79-4.71-10.5-10.5-10.5h-58.06c-5.79,0-10.5,4.71-10.5,10.5
		v51.662C140.645,146.007,145.354,150.717,151.145,150.717z"/>
</g>
<g>
</g>
<g>
</g>
<g>
</g>
<g>
</g>
<g>
</g>
<g>
</g>
<g>
</g>
<g>
</g>
<g>
</g>
<g>
</g>
<g>
</g>
<g>
</g>
<g>
</g>
<g>
</g>
<g>
</g>
</svg>
