<?xml version="1.0" encoding="iso-8859-1"?>
<!-- Generator: Adobe Illustrator 19.0.0, SVG Export Plug-In . SVG Version: 6.00 Build 0)  -->
<svg version="1.1" id="Capa_1" xmlns="http://www.w3.org/2000/svg" xmlns:xlink="http://www.w3.org/1999/xlink" x="0px" y="0px"
	 viewBox="0 0 512 512" style="enable-background:new 0 0 512 512;" xml:space="preserve">
<g>
	<g>
		<path d="M273.255,355.536C281.239,349.911,286,340.741,286,331c0-16.538-13.462-30-30-30c-16.538,0-30,13.462-30,30
			c0,9.741,4.761,18.911,12.744,24.536c5.186,3.662,7.515,10.195,5.801,16.304L230.775,421h50.449l-13.77-49.16
			C265.74,365.732,268.069,359.198,273.255,355.536z"/>
	</g>
</g>
<g>
	<g>
		<path d="M406,211H106c-24.814,0-45,20.186-45,45v210c0,24.814,20.186,46,45,46h300c24.814,0,45-21.186,45-46V256
			C451,231.186,430.814,211,406,211z M315.443,431.957c1.26,4.512,0.352,9.375-2.49,13.11S305.688,451,301,451h-90
			c-4.688,0-9.111-2.197-11.953-5.933c-2.842-3.736-3.75-8.599-2.49-13.11l16.538-59.033C202.24,361.806,196,346.776,196,331
			c0-33.091,26.909-60,60-60s60,26.909,60,60c0,15.776-6.24,30.806-17.095,41.924L315.443,431.957z"/>
	</g>
</g>
<g>
	<g>
		<path d="M256,0c-74.559,0-135,60.441-135,135v46h60v-46c0-41.422,33.578-75,75-75s75,33.578,75,75v46h60v-46
			C391,60.441,330.559,0,256,0z"/>
	</g>
</g>
<g>
</g>
<g>
</g>
<g>
</g>
<g>
</g>
<g>
</g>
<g>
</g>
<g>
</g>
<g>
</g>
<g>
</g>
<g>
</g>
<g>
</g>
<g>
</g>
<g>
</g>
<g>
</g>
<g>
</g>
</svg>
